<svg xmlns="http://www.w3.org/2000/svg" viewBox="0 0 24 24">
  <path d="M9.70711 6.29289C9.31658 5.90237 8.68342 5.90237 8.29289 6.29289L3.29289 11.2929C2.90237 11.6834 2.90237 12.3166 3.29289 12.7071L8.29289 17.7071C8.68342 18.0976 9.31658 18.0976 9.70711 17.7071C10.0976 17.3166 10.0976 16.6834 9.70711 16.2929L6.41421 13H18.5V17C18.5 17.5523 18.9477 18 19.5 18C20.0523 18 20.5 17.5523 20.5 17V12C20.5 11.4478 20.0523 11 19.5 11H6.41421L9.70711 7.70711C10.0976 7.31658 10.0976 6.68342 9.70711 6.29289Z"/>
</svg>
