<svg width="32" height="32" viewBox="0 0 32 32" fill="none" xmlns="http://www.w3.org/2000/svg">
<path d="M18.2929 23.2071C18.6834 23.5976 19.3166 23.5976 19.7071 23.2071C20.0976 22.8166 20.0976 22.1834 19.7071 21.7929L18.2929 23.2071ZM12.5 16L11.7929 15.2929C11.4024 15.6834 11.4024 16.3166 11.7929 16.7071L12.5 16ZM19.7071 10.2071C20.0976 9.81658 20.0976 9.18342 19.7071 8.79289C19.3166 8.40237 18.6834 8.40237 18.2929 8.79289L19.7071 10.2071ZM19.7071 21.7929L13.2071 15.2929L11.7929 16.7071L18.2929 23.2071L19.7071 21.7929ZM13.2071 16.7071L19.7071 10.2071L18.2929 8.79289L11.7929 15.2929L13.2071 16.7071Z" fill="#2F343D"/>
</svg>
