<svg width="32" height="32" viewBox="0 0 32 32" fill="none" xmlns="http://www.w3.org/2000/svg">
<path d="M13.7071 8.79289C13.3166 8.40237 12.6834 8.40237 12.2929 8.79289C11.9024 9.18342 11.9024 9.81658 12.2929 10.2071L13.7071 8.79289ZM19.5 16L20.2071 16.7071C20.5976 16.3166 20.5976 15.6834 20.2071 15.2929L19.5 16ZM12.2929 21.7929C11.9024 22.1834 11.9024 22.8166 12.2929 23.2071C12.6834 23.5976 13.3166 23.5976 13.7071 23.2071L12.2929 21.7929ZM12.2929 10.2071L18.7929 16.7071L20.2071 15.2929L13.7071 8.79289L12.2929 10.2071ZM18.7929 15.2929L12.2929 21.7929L13.7071 23.2071L20.2071 16.7071L18.7929 15.2929Z" fill="#2F343D"/>
</svg>
