<svg xmlns="http://www.w3.org/2000/svg" viewBox="0 0 24 24">
  <path d="M4 2C3.44772 2 3 2.44772 3 3V21C3 21.5523 3.44772 22 4 22H16C16.5523 22 17 21.5523 17 21V19.5C17 18.9477 16.5523 18.5 16 18.5C15.4477 18.5 15 18.9477 15 19.5V20H5V4H15V5C15 5.55228 15.4477 6 16 6C16.5523 6 17 5.55228 17 5V3C17 2.44772 16.5523 2 16 2H4Z M17.7071 7.79289C17.3166 7.40237 16.6834 7.40237 16.2929 7.79289C15.9024 8.18342 15.9024 8.81658 16.2929 9.20711L18.0858 11H9C8.44772 11 8 11.4477 8 12C8 12.5523 8.44772 13 9 13H18.0858L16.2929 14.7929C15.9024 15.1834 15.9024 15.8166 16.2929 16.2071C16.6834 16.5976 17.3166 16.5976 17.7071 16.2071L21.2071 12.7071C21.5976 12.3166 21.5976 11.6834 21.2071 11.2929L17.7071 7.79289Z" />
</svg>
