<svg xmlns="http://www.w3.org/2000/svg" viewBox="0 0 24 24">
  <path d="M14.1873 8.46903H12.5818C12.0227 8.46903 11.5694 8.01576 11.5694 7.45662C11.5694 6.89748 12.0227 6.44421 12.5818 6.44421H16.6315C17.1906 6.44421 17.6439 6.89748 17.6439 7.45662V11.5063C17.6439 12.0654 17.1906 12.5187 16.6315 12.5187C16.0723 12.5187 15.6191 12.0654 15.6191 11.5063V9.90079L8.1725 17.3473C7.77713 17.7427 7.13611 17.7427 6.74074 17.3473C6.34537 16.952 6.34537 16.311 6.74074 15.9156L14.1873 8.46903Z M3 5C3 3.89543 3.89543 3 5 3H19C20.1046 3 21 3.89543 21 5V19C21 20.1046 20.1046 21 19 21H5C3.89543 21 3 20.1046 3 19V5ZM5 5H19V19H5L5 5Z" />
</svg>
