<svg xmlns="http://www.w3.org/2000/svg" viewBox="0 0 24 24" >
  <path d="M20.7715 4.36379C21.0169 4.66132 21.0693 5.07342 20.9062 5.42289L13.9062 20.4229C13.7283 20.804 13.331 21.0331 12.9121 20.9961C12.4932 20.9592 12.1421 20.664 12.0338 20.2577L10.1498 13.193L3.55279 9.89443C3.17849 9.70728 2.96031 9.30686 3.00597 8.89088C3.05163 8.47491 3.35148 8.13135 3.75746 8.02986L19.7575 4.02986C20.1316 3.93633 20.5262 4.06626 20.7715 4.36379ZM12.1402 12.8948L13.2573 17.0839L18.2062 6.47924L6.86508 9.31451L10.8944 11.3292L12.4 10.2C12.8418 9.86863 13.4686 9.95817 13.8 10.4C14.1314 10.8418 14.0418 11.4686 13.6 11.8L12.1402 12.8948Z" />
</svg>
