<svg xmlns="http://www.w3.org/2000/svg" viewBox="0 0 24 24">
  <path d="M4.8 6.59912C6.44201 4.41362 9.05592 3 12 3C16.9706 3 21 7.02944 21 12C21 16.9706 16.9706 21 12 21C7.33319 21 3.49599 17.448 3.04444 12.9H4.8557C5.29859 16.4517 8.32834 19.2 12 19.2C15.9764 19.2 19.2 15.9764 19.2 12C19.2 8.02355 15.9764 4.8 12 4.8C9.33498 4.8 7.00815 6.24791 5.76323 8.4H7.5C7.99706 8.4 8.4 8.80294 8.4 9.3C8.4 9.79706 7.99706 10.2 7.5 10.2H3.9C3.40294 10.2 3 9.79706 3 9.3V5.7C3 5.20294 3.40294 4.8 3.9 4.8C4.39706 4.8 4.8 5.20294 4.8 5.7V6.59912Z" />
</svg>
