<svg width="32" height="32" viewBox="0 0 32 32" fill="none" xmlns="http://www.w3.org/2000/svg">
<circle cx="16" cy="16" r="5" stroke="#2F343D" stroke-width="2"/>
<path d="M27.5 19.5L26.5602 19.1583L27.5 19.5ZM25.5 8.5L24.7526 9.16436L25.5 8.5ZM5 11L5.90796 11.4191L5.91372 11.4066L5.91914 11.3939L5 11ZM5.5 22L4.63175 22.4961L4.63176 22.4961L5.5 22ZM19.8714 28.4285C20.3842 28.2234 20.6336 27.6414 20.4285 27.1286C20.2234 26.6158 19.6414 26.3664 19.1286 26.5715L19.8714 28.4285ZM21.5 18.5H20.5V18.5828L20.5136 18.6644L21.5 18.5ZM22.5 10C22.5 9.44772 22.0523 9 21.5 9C20.9477 9 20.5 9.44772 20.5 10H22.5ZM24.6871 21.5864L24.655 22.5859L24.6711 22.5864H24.6871V21.5864ZM28.4398 19.8417C28.8348 18.7554 29.1171 16.7262 28.9123 14.5321C28.7064 12.326 27.9942 9.80083 26.2474 7.83564L24.7526 9.16436C26.1169 10.6992 26.738 12.7574 26.921 14.7179C27.1051 16.6904 26.8318 18.4113 26.5602 19.1583L28.4398 19.8417ZM26.2474 7.83564C24.1567 5.48361 22.1513 4.25447 20.355 3.62721C18.5662 3.00255 17.049 3.00006 16.0313 3L16.0312 5C17.0186 5.00006 18.2462 5.00925 19.6956 5.5154C21.1377 6.01895 22.864 7.03975 24.7526 9.16436L26.2474 7.83564ZM16.0313 3C16.0208 3 16.0104 3 16 3V5C16.0104 5 16.0208 5 16.0312 5L16.0313 3ZM16.0313 3C13.1697 3 6.70876 4.4743 4.08085 10.6061L5.91914 11.3939C8.09124 6.3257 13.5387 5 16.0313 5V3ZM4.63176 22.4961C5.35768 23.7665 7.53171 26.6016 10.6061 27.9191L11.3939 26.0809C8.8683 24.9984 6.97566 22.5668 6.36824 21.5039L4.63176 22.4961ZM10.6061 27.9191C13.5705 29.1896 17.0551 29.555 19.8714 28.4285L19.1286 26.5715C16.9449 27.445 14.0295 27.2104 11.3939 26.0809L10.6061 27.9191ZM22.5 18.5V10H20.5V18.5H22.5ZM26.5602 19.1583C26.3593 19.7109 25.9178 20.5864 24.6871 20.5864V22.5864C27.2697 22.5864 28.1782 20.5612 28.4398 19.8417L26.5602 19.1583ZM24.7193 20.5869C24.1488 20.5686 22.7856 20.1306 22.4864 18.3356L20.5136 18.6644C21.0144 21.6694 23.4341 22.5466 24.655 22.5859L24.7193 20.5869ZM4.09204 10.5809C3.53061 11.7974 3 13.8155 3 16H5C5 14.1011 5.46939 12.3693 5.90796 11.4191L4.09204 10.5809ZM3 16C3 18.1862 3.53188 20.5714 4.63175 22.4961L6.36824 21.5039C5.46812 19.9286 5 17.8971 5 16H3Z" fill="#2F343D"/>
</svg>
