<svg xmlns="http://www.w3.org/2000/svg" viewBox="0 0 32 32">
<path d="M20.355 3.62721C18.5662 3.00255 17.049 3.00006 16.0313 3L16.0313 5L16 3C13.1248 3.01068 6.70796 4.49451 4.0862 10.5936C3.52693 11.8114 3 13.8231 3 16C3 18.1862 3.53188 20.5714 4.63175 22.4961C5.35768 23.7665 7.53171 26.6016 10.6061 27.9191C13.5705 29.1896 17.0551 29.555 19.8714 28.4285C20.3842 28.2234 20.6336 27.6414 20.4285 27.1286C20.2234 26.6158 19.6414 26.3664 19.1286 26.5715C16.9449 27.445 14.0295 27.2104 11.3939 26.0809C8.8683 24.9984 6.97566 22.5668 6.36824 21.5039C5.46812 19.9286 5 17.8971 5 16C5 14.1011 5.46939 12.3693 5.90796 11.4191L5.91372 11.4066L5.91914 11.3939C8.09122 6.32574 13.5386 5.00002 16.0313 5C17.0186 5.00006 18.2462 5.00926 19.6956 5.5154C21.1377 6.01895 22.864 7.03975 24.7526 9.16436C26.1169 10.6992 26.738 12.7574 26.921 14.7179C27.1051 16.6904 26.8318 18.4113 26.5602 19.1583C26.3602 19.7083 25.9219 20.5783 24.7042 20.5864C24.1336 20.5612 22.8219 20.1279 22.5 18.4124V10C22.5 9.44772 22.0523 9 21.5 9C20.9477 9 20.5 9.44772 20.5 10V12.0313C19.4006 10.7856 17.792 10 16 10C12.6863 10 10 12.6863 10 16C10 19.3137 12.6863 22 16 22C17.9431 22 19.6704 21.0764 20.7669 19.6442C21.5705 21.8654 23.5786 22.5513 24.655 22.5859L24.6711 22.5864H24.6871C27.2697 22.5864 28.1782 20.5612 28.4398 19.8417C28.8348 18.7554 29.1171 16.7262 28.9123 14.5321C28.7064 12.326 27.9942 9.80083 26.2474 7.83564C24.1567 5.48361 22.1513 4.25447 20.355 3.62721ZM20 16C20 18.2091 18.2091 20 16 20C13.7909 20 12 18.2091 12 16C12 13.7909 13.7909 12 16 12C18.2091 12 20 13.7909 20 16Z"/>
</svg>
