<svg width="32" height="32" viewBox="0 0 32 32" fill="none" xmlns="http://www.w3.org/2000/svg">
<path d="M15.7228 23.8708C15.3753 24.3001 15.4415 24.9297 15.8708 25.2772C16.3001 25.6247 16.9297 25.5585 17.2772 25.1292L15.7228 23.8708ZM9.23178 18.8598C8.87821 19.2841 8.93554 19.9147 9.35982 20.2682C9.78409 20.6218 10.4147 20.5645 10.7682 20.1402L9.23178 18.8598ZM17.2002 10.8598L16.4319 10.2196L17.2002 10.8598ZM21.1227 11.3586L20.1327 11.5L21.1227 11.3586ZM21.2117 14.3424L21.9766 14.9865L21.2117 14.3424ZM21.4367 13.5569L22.4266 13.4154L21.4367 13.5569ZM14.0994 22.7883L13.3344 22.1441L14.0994 22.7883ZM24.3864 14.7579L23.6092 14.1287L24.3864 14.7579ZM24.7807 13.0498L23.8063 13.2747L24.7807 13.0498ZM17.2772 25.1292L25.1637 15.3871L23.6092 14.1287L15.7228 23.8708L17.2772 25.1292ZM25.7551 12.825L24.8067 8.71505L22.8579 9.16477L23.8063 13.2747L25.7551 12.825ZM22.0972 6.39726L17.5993 6.07597L17.4568 8.07089L21.9548 8.39217L22.0972 6.39726ZM15.0726 7.1577L6.76017 17.2202L8.30209 18.4939L16.6146 8.43147L15.0726 7.1577ZM6.08794 19.4293L6.32486 21.7985L8.31494 21.5995L8.07802 19.2303L6.08794 19.4293ZM9.30998 24.5H12.5695V22.5H9.30998V24.5ZM14.8643 23.4324L21.9766 14.9865L20.4467 13.6983L13.3344 22.1441L14.8643 23.4324ZM22.4266 13.4154L22.1126 11.2172L20.1327 11.5L20.4467 13.6983L22.4266 13.4154ZM20.1327 9.5H17.9684V11.5H20.1327V9.5ZM16.4319 10.2196L9.23178 18.8598L10.7682 20.1402L17.9684 11.5L16.4319 10.2196ZM17.9684 9.5C17.3748 9.5 16.8119 9.76365 16.4319 10.2196L17.9684 11.5V9.5ZM22.1126 11.2172C21.9718 10.2319 21.128 9.5 20.1327 9.5V11.5V11.5L22.1126 11.2172ZM21.9766 14.9865C22.3435 14.5508 22.5072 13.9793 22.4266 13.4154L20.4467 13.6983V13.6983L21.9766 14.9865ZM12.5695 24.5C13.4545 24.5 14.2942 24.1093 14.8643 23.4324L13.3344 22.1441C13.1444 22.3698 12.8645 22.5 12.5695 22.5V24.5ZM6.32486 21.7985C6.47822 23.3321 7.76872 24.5 9.30998 24.5V22.5C8.79622 22.5 8.36606 22.1107 8.31494 21.5995L6.32486 21.7985ZM6.76017 17.2202C6.25031 17.8374 6.00829 18.6327 6.08794 19.4293L8.07802 19.2303C8.05147 18.9648 8.13214 18.6997 8.30209 18.4939L6.76017 17.2202ZM17.5993 6.07597C16.6317 6.00686 15.6904 6.40985 15.0726 7.1577L16.6146 8.43147C16.8205 8.18218 17.1343 8.04785 17.4568 8.07089L17.5993 6.07597ZM24.8067 8.71505C24.5104 7.43134 23.4113 6.49112 22.0972 6.39726L21.9548 8.39217C22.3928 8.42346 22.7591 8.73687 22.8579 9.16477L24.8067 8.71505ZM25.1637 15.3871C25.7446 14.6696 25.9627 13.7245 25.7551 12.825L23.8063 13.2747C23.8755 13.5745 23.8028 13.8895 23.6092 14.1287L25.1637 15.3871Z" fill="#2F343D"/>
</svg>
