<svg width="32" height="32" viewBox="0 0 32 32" fill="none" xmlns="http://www.w3.org/2000/svg">
<path fill-rule="evenodd" clip-rule="evenodd" d="M19 26C19 27.6569 17.6569 29 16 29C14.3432 29 13 27.6569 13 26H19ZM23 21.9899V22.0116V23H9.00003V12C9.00003 8.13401 12.134 5 16 5C19.866 5 23 8.13401 23 12V21.9899ZM9.00003 25H7.00003H6.00003C5.59557 25 5.23093 24.7564 5.07615 24.3827C4.92137 24.009 5.00692 23.5789 5.29292 23.2929L7.00003 21.5858V12C7.00003 7.02944 11.0295 3 16 3C20.9706 3 25 7.02944 25 12V21.6667L26.3 23.4C26.5273 23.703 26.5638 24.1084 26.3945 24.4472C26.2251 24.786 25.8788 25 25.5 25H25H23H9.00003Z" fill="#2F343D"/>
</svg>
