<svg xmlns="http://www.w3.org/2000/svg" viewBox="0 0 24 24">
  <path d="M12.4416 22C11.3582 22 10.4815 21.1158 10.4815 20.023H14.4017C14.4017 21.1158 13.5251 22 12.4416 22ZM17.3664 8.09142C17.3664 5.34944 15.1601 3.9486 12.4416 3.9486C10.8682 3.9486 9.46638 4.41786 8.56458 5.34481L7.22225 3.99088C8.17988 3.0707 9.48404 2.45386 10.9642 2.13055C11.988 1.95496 12.913 1.95801 13.919 2.13055C17.0118 2.80611 19.3363 4.7633 19.3363 8.09142V16.2096L17.3664 14.2227V8.09142ZM14.5805 17.0326L16.5504 19.0196H4.49719C4.10385 19.0196 3.86924 18.5774 4.08742 18.2473L5.5469 16.0392V8.09142C5.5469 8.03488 5.54757 7.97873 5.5489 7.92298L7.51682 9.9079V17.0326H14.5805ZM3.28849 2.83307C2.90384 3.22105 2.90384 3.85007 3.28849 4.23805L19.3186 20.4067C19.7032 20.7946 20.3269 20.7946 20.7115 20.4067C21.0962 20.0187 21.0962 19.3896 20.7115 19.0017L4.68143 2.83307C4.29678 2.4451 3.67314 2.4451 3.28849 2.83307Z" />
</svg>
