<svg xmlns="http://www.w3.org/2000/svg" viewBox="0 0 24 24">
  <path d="M10.01 20.01C10.01 21.11 10.9 22 12 22C13.1 22 13.99 21.11 13.99 20.01H10.01ZM12 3.82994C14.76 3.82994 17 5.23999 17 7.99999V17H6.99999V7.99999C6.99999 5.23999 9.23999 3.82994 12 3.82994ZM10.5 1.99994C7.35999 2.67994 4.99999 4.64999 4.99999 7.99999V16L3.51823 18.2226C3.29671 18.5549 3.5349 19 3.93425 19H20.0657C20.4651 19 20.7033 18.5549 20.4818 18.2226L19 16V7.99999C19 4.64999 16.64 2.67994 13.5 1.99994C12.4786 1.82626 11.5394 1.8232 10.5 1.99994Z" />
</svg>
