<svg xmlns="http://www.w3.org/2000/svg" viewBox="0 0 32 32">
  <path d="M16 3C13.2164 3 10.728 4.26369 9.07711 6.24868L10.499 7.67061C11.7808 6.04419 13.7685 5 16 5C19.866 5 23 8.13401 23 12V20.1716L25 22.1716V22V12C25 7.02944 20.9706 3 16 3ZM7.21359 10.042L9.00201 11.8304C9.00067 11.8868 9 11.9433 9 12V23H20.1716L22.1716 25H9H7H6C5.59554 25 5.2309 24.7564 5.07612 24.3827C4.92134 24.009 5.0069 23.5789 5.29289 23.2929L7 21.5858V12C7 11.3276 7.07375 10.6724 7.21359 10.042ZM19 26C19 27.6569 17.6569 29 16 29C14.3431 29 13 27.6569 13 26H19ZM4.70708 4.7072C4.31655 5.09772 4.31655 5.73089 4.70708 6.12141L25.8201 27.2344C26.2106 27.6249 26.8438 27.6249 27.2343 27.2344C27.6248 26.8439 27.6248 26.2107 27.2343 25.8202L6.12129 4.7072C5.73077 4.31668 5.0976 4.31668 4.70708 4.7072Z"/>
</svg>
