<svg xmlns="http://www.w3.org/2000/svg" viewBox="0 0 24 24">
  <path d="M6.79289 2.29289C7.18342 1.90237 7.81658 1.90237 8.20711 2.29289C8.59763 2.68342 8.59763 3.31658 8.20711 3.70711L6.41421 5.5H19.5C20.0523 5.5 20.5 5.94772 20.5 6.5V9C20.5 9.55228 20.0523 10 19.5 10C18.9477 10 18.5 9.55228 18.5 9V7.5H6.41421L8.20711 9.29289C8.59763 9.68342 8.59763 10.3166 8.20711 10.7071C7.81658 11.0976 7.18342 11.0976 6.79289 10.7071L3.29289 7.20711C2.90237 6.81658 2.90237 6.18342 3.29289 5.79289L6.79289 2.29289Z M16.7071 21.7071C16.3166 22.0976 15.6834 22.0976 15.2929 21.7071C14.9024 21.3166 14.9024 20.6834 15.2929 20.2929L17.0858 18.5H4C3.44772 18.5 3 18.0523 3 17.5V15C3 14.4477 3.44772 14 4 14C4.55228 14 5 14.4477 5 15V16.5H17.0858L15.2929 14.7071C14.9024 14.3166 14.9024 13.6834 15.2929 13.2929C15.6834 12.9024 16.3166 12.9024 16.7071 13.2929L20.2071 16.7929C20.5976 17.1834 20.5976 17.8166 20.2071 18.2071L16.7071 21.7071Z" />
</svg>
