<svg width="32" height="32" viewBox="0 0 32 32" fill="none" xmlns="http://www.w3.org/2000/svg">
<path d="M8.79289 18.2929C8.40237 18.6834 8.40237 19.3166 8.79289 19.7071C9.18342 20.0976 9.81658 20.0976 10.2071 19.7071L8.79289 18.2929ZM16 12.5L16.7071 11.7929C16.3166 11.4024 15.6834 11.4024 15.2929 11.7929L16 12.5ZM21.7929 19.7071C22.1834 20.0976 22.8166 20.0976 23.2071 19.7071C23.5976 19.3166 23.5976 18.6834 23.2071 18.2929L21.7929 19.7071ZM10.2071 19.7071L16.7071 13.2071L15.2929 11.7929L8.79289 18.2929L10.2071 19.7071ZM15.2929 13.2071L21.7929 19.7071L23.2071 18.2929L16.7071 11.7929L15.2929 13.2071Z" fill="#2F343D"/>
</svg>
