<svg width="32" height="32" viewBox="0 0 32 32" fill="none" xmlns="http://www.w3.org/2000/svg">
<path d="M23.2071 13.7071C23.5976 13.3166 23.5976 12.6834 23.2071 12.2929C22.8166 11.9024 22.1834 11.9024 21.7929 12.2929L23.2071 13.7071ZM16 19.5L15.2929 20.2071C15.6834 20.5976 16.3166 20.5976 16.7071 20.2071L16 19.5ZM10.2071 12.2929C9.81658 11.9024 9.18342 11.9024 8.79289 12.2929C8.40237 12.6834 8.40237 13.3166 8.79289 13.7071L10.2071 12.2929ZM21.7929 12.2929L15.2929 18.7929L16.7071 20.2071L23.2071 13.7071L21.7929 12.2929ZM16.7071 18.7929L10.2071 12.2929L8.79289 13.7071L15.2929 20.2071L16.7071 18.7929Z" fill="#2F343D"/>
</svg>
