<svg xmlns="http://www.w3.org/2000/svg" viewBox="0 0 24 24">
  <path d="M12 12.5858L20.2929 4.29289C20.6834 3.90237 21.3166 3.90237 21.7071 4.29289C22.0976 4.68342 22.0976 5.31658 21.7071 5.70711L12.7071 14.7071C12.3166 15.0976 11.6834 15.0976 11.2929 14.7071L8.29289 11.7071C7.90237 11.3166 7.90237 10.6834 8.29289 10.2929C8.68342 9.90237 9.31658 9.90237 9.70711 10.2929L12 12.5858ZM21.6353 9.31446C21.873 10.169 22 11.0697 22 12C22 17.5228 17.5228 22 12 22C6.47715 22 2 17.5228 2 12C2 6.47715 6.47715 2 12 2C14.0068 2 15.8755 2.59112 17.4415 3.60873L15.9873 5.06294C14.8135 4.38678 13.4519 4 12 4C7.58172 4 4 7.58172 4 12C4 16.4183 7.58172 20 12 20C16.4183 20 20 16.4183 20 12C20 11.6649 19.9794 11.3346 19.9394 11.0104L21.6353 9.31446Z" />
</svg>
