<svg xmlns="http://www.w3.org/2000/svg" viewBox="0 0 32 32">
<path d="M27 16C27 22.0751 22.0751 27 16 27C9.92487 27 5 22.0751 5 16C5 9.92487 9.92487 5 16 5C22.0751 5 27 9.92487 27 16ZM29 16C29 23.1797 23.1797 29 16 29C8.8203 29 3 23.1797 3 16C3 8.8203 8.8203 3 16 3C23.1797 3 29 8.8203 29 16ZM17 9C17 8.44772 16.5523 8 16 8C15.4477 8 15 8.44772 15 9V16C15 16.2652 15.1054 16.5196 15.2929 16.7071L18.2929 19.7071C18.6834 20.0976 19.3166 20.0976 19.7071 19.7071C20.0976 19.3166 20.0976 18.6834 19.7071 18.2929L17 15.5858V9Z"/>
</svg>
