<svg xmlns="http://www.w3.org/2000/svg" viewBox="0 0 24 24">
  <path d="M5.29289 6.70405C4.90237 6.31353 4.90237 5.68037 5.29289 5.28984C5.68342 4.89932 6.31658 4.89932 6.70711 5.28984L12.0015 10.5842L17.2959 5.28984C17.6864 4.89932 18.3196 4.89932 18.7101 5.28984C19.1006 5.68037 19.1006 6.31353 18.7101 6.70405L13.4157 11.9984L18.7101 17.2928C19.1006 17.6834 19.1006 18.3165 18.7101 18.707C18.3196 19.0976 17.6864 19.0976 17.2959 18.707L12.0015 13.4127L6.70711 18.707C6.31658 19.0976 5.68342 19.0976 5.29289 18.707C4.90237 18.3165 4.90237 17.6834 5.29289 17.2928L10.5873 11.9984L5.29289 6.70405Z" />
</svg>
