<svg width="32" height="32" viewBox="0 0 32 32" fill="none" xmlns="http://www.w3.org/2000/svg">
<path fill-rule="evenodd" clip-rule="evenodd" d="M25.5545 4.82746C24.3863 3.58839 22.422 3.56914 21.2297 4.78509L5.99093 20.3258C5.60762 20.7167 5.33859 21.2051 5.21298 21.7379L4.1265 26.3473C3.91768 27.2332 4.6604 28.0539 5.56267 27.9342L9.72657 27.3822C10.3711 27.2968 10.9704 27.0042 11.4343 26.5487L27.3025 10.9655C28.4676 9.82123 28.5035 7.95519 27.3832 6.76699L25.5545 4.82746ZM22.6577 6.18536C23.0552 5.78005 23.7099 5.78646 24.0993 6.19949L25.928 8.13901C26.3015 8.53508 26.2895 9.15709 25.9011 9.53851L22.3954 12.9813L19.1632 9.7491L22.6577 6.18536ZM17.7629 11.1772L7.41895 21.7261C7.29118 21.8564 7.2015 22.0192 7.15963 22.1968L6.30602 25.8182L9.46372 25.3996C9.67857 25.3711 9.87834 25.2736 10.033 25.1217L20.9684 14.3827L17.7629 11.1772Z" fill="#2F343D"/>
</svg>
