<svg xmlns="http://www.w3.org/2000/svg" viewBox="0 0 24 24">
  <path d="M20 12C20 16.4183 16.4183 20 12 20C7.58172 20 4 16.4183 4 12C4 7.58172 7.58172 4 12 4C16.4183 4 20 7.58172 20 12ZM22 12C22 17.5228 17.5228 22 12 22C6.47715 22 2 17.5228 2 12C2 6.47715 6.47715 2 12 2C17.5228 2 22 6.47715 22 12ZM8.8 13.4C8.46863 12.9582 7.84183 12.8686 7.4 13.2C6.95817 13.5314 6.86863 14.1582 7.2 14.6C7.8104 15.4139 9.57413 17 12 17C14.4259 17 16.1896 15.4139 16.8 14.6C17.1314 14.1582 17.0418 13.5314 16.6 13.2C16.1582 12.8686 15.5314 12.9582 15.2 13.4C14.8104 13.9195 13.5741 15 12 15C10.4259 15 9.1896 13.9195 8.8 13.4ZM11 9.5C11 10.3284 10.3284 11 9.5 11C8.67157 11 8 10.3284 8 9.5C8 8.67157 8.67157 8 9.5 8C10.3284 8 11 8.67157 11 9.5ZM14.5 11C15.3284 11 16 10.3284 16 9.5C16 8.67157 15.3284 8 14.5 8C13.6716 8 13 8.67157 13 9.5C13 10.3284 13.6716 11 14.5 11Z" />
</svg>
