<svg xmlns="http://www.w3.org/2000/svg" viewBox="0 0 32 32">
<path d="M27 16C27 22.0751 22.0751 27 16 27C9.92487 27 5 22.0751 5 16C5 9.92487 9.92487 5 16 5C22.0751 5 27 9.92487 27 16ZM29 16C29 23.1797 23.1797 29 16 29C8.8203 29 3 23.1797 3 16C3 8.8203 8.8203 3 16 3C23.1797 3 29 8.8203 29 16ZM13 15C14.1046 15 15 14.1046 15 13C15 11.8954 14.1046 11 13 11C11.8954 11 11 11.8954 11 13C11 14.1046 11.8954 15 13 15ZM21 13C21 14.1046 20.1046 15 19 15C17.8954 15 17 14.1046 17 13C17 11.8954 17.8954 11 19 11C20.1046 11 21 11.8954 21 13ZM10.8336 17.4477C10.5286 16.9873 9.90805 16.8613 9.44766 17.1664C8.98726 17.4714 8.86133 18.0919 9.16638 18.5523C10.4334 20.4647 11.7831 21.706 13.1845 22.3815C14.6026 23.065 16.0047 23.1351 17.2886 22.8197C19.7871 22.2058 21.7688 20.1594 22.8336 18.5523C23.1387 18.0919 23.0127 17.4714 22.5523 17.1664C22.0919 16.8613 21.4714 16.9873 21.1664 17.4477C20.2312 18.8591 18.6129 20.4348 16.8114 20.8775C15.9453 21.0903 15.0224 21.0472 14.053 20.5799C13.0669 20.1046 11.9666 19.1575 10.8336 17.4477Z"/>
</svg>
