<svg width="32" height="32" viewBox="0 0 32 32" fill="none" xmlns="http://www.w3.org/2000/svg">
<path fill-rule="evenodd" clip-rule="evenodd" d="M4.78126 4.78117C4.39074 5.1717 4.39074 5.80486 4.78126 6.19539L25.8202 27.2343C26.2107 27.6249 26.8439 27.6249 27.2344 27.2343C27.6249 26.8438 27.6249 26.2106 27.2344 25.8201L6.19548 4.78117C5.80495 4.39065 5.17179 4.39065 4.78126 4.78117ZM2.99182 15.4468C4.06866 13.6743 5.55958 11.7765 7.37187 10.2004L8.79 11.6185C7.33477 12.8623 6.07095 14.3714 5.07998 15.8848C10.5221 22.8991 15.1374 23.9114 18.5071 23.0885C18.9564 22.9788 19.3975 22.8336 19.829 22.6576L21.3424 24.1709C16.4394 26.5608 10.0241 25.8361 3.05735 16.5302C2.82231 16.2162 2.7882 15.782 2.99182 15.4468ZM10.6667 16.0001C10.6667 15.2611 10.817 14.5571 11.0887 13.9172L12.6998 15.5283C12.6779 15.6824 12.6667 15.8399 12.6667 16.0001C12.6667 17.841 14.159 19.3334 16 19.3334C16.1601 19.3334 16.3176 19.3221 16.4718 19.3003L18.0829 20.9114C17.4429 21.1831 16.739 21.3334 16 21.3334C13.0545 21.3334 10.6667 18.9456 10.6667 16.0001ZM13.9171 11.0888L15.5282 12.6999C15.6823 12.678 15.8398 12.6667 16 12.6667C17.8409 12.6667 19.3333 14.1591 19.3333 16.0001C19.3333 16.1602 19.322 16.3177 19.3002 16.4719L20.9113 18.0829C21.183 17.443 21.3333 16.7391 21.3333 16.0001C21.3333 13.0546 18.9455 10.6667 16 10.6667C15.261 10.6667 14.557 10.8171 13.9171 11.0888ZM26.9561 16.1176C25.996 17.6653 24.7499 19.2088 23.2967 20.4683L24.7142 21.8858C26.5279 20.2872 27.9969 18.3439 29.0371 16.5334C29.2244 16.2074 29.1911 15.7935 28.9722 15.4879C22.2168 6.0566 15.7482 5.42205 10.7423 7.91394L12.2494 9.42104C12.7518 9.20781 13.2659 9.0348 13.7894 8.90886C15.6245 8.46744 17.6505 8.58061 19.8645 9.65749C22.0059 10.6991 24.4063 12.6853 26.9561 16.1176Z" fill="#2F343D"/>
</svg>
