<svg xmlns="http://www.w3.org/2000/svg" viewBox="0 0 32 32">
<path d="M18.5072 23.0885C15.1374 23.9114 10.5222 22.8991 5.08004 15.8848C7.08846 12.8176 10.2176 9.76807 13.7895 8.90886C15.6246 8.46744 17.6506 8.58061 19.8645 9.65749C22.0059 10.6991 24.4064 12.6853 26.9562 16.1176C25.0562 19.1804 22.0362 22.2267 18.5072 23.0885ZM28.9723 15.4879C17.6802 -0.277022 7.18976 8.53698 2.99188 15.4468C2.78826 15.782 2.82237 16.2162 3.05741 16.5302C14.8526 32.2857 25.067 23.4435 29.0372 16.5334C29.2244 16.2074 29.1912 15.7935 28.9723 15.4879ZM19.3334 16.0001C19.3334 17.841 17.841 19.3334 16 19.3334C14.1591 19.3334 12.6667 17.841 12.6667 16.0001C12.6667 14.1591 14.1591 12.6667 16 12.6667C17.841 12.6667 19.3334 14.1591 19.3334 16.0001ZM21.3334 16.0001C21.3334 18.9456 18.9456 21.3334 16 21.3334C13.0545 21.3334 10.6667 18.9456 10.6667 16.0001C10.6667 13.0546 13.0545 10.6667 16 10.6667C18.9456 10.6667 21.3334 13.0546 21.3334 16.0001Z"/>
</svg>
