<svg xmlns="http://www.w3.org/2000/svg" viewBox="0 0 32 32">
<path d="M5.33337 8.33333C5.33337 7.59695 5.93033 7 6.66671 7H25.3334C26.0697 7 26.6667 7.59695 26.6667 8.33333C26.6667 9.06971 26.0698 9.66667 25.3334 9.66667H6.66671C5.93033 9.66667 5.33337 9.06971 5.33337 8.33333ZM12 13.6666C12 14.403 11.4031 14.9999 10.6667 14.9999C9.93033 14.9999 9.33337 14.403 9.33337 13.6666C9.33337 12.9302 9.93033 12.3333 10.6667 12.3333C11.4031 12.3333 12 12.9302 12 13.6666ZM12 23.6666C12 24.403 11.4031 24.9999 10.6667 24.9999C9.93033 24.9999 9.33337 24.403 9.33337 23.6666C9.33337 22.9302 9.93033 22.3333 10.6667 22.3333C11.4031 22.3333 12 22.9302 12 23.6666ZM14.6667 20.3334C15.4031 20.3334 16 19.7365 16 19.0001C16 18.2637 15.4031 17.6667 14.6667 17.6667C13.9303 17.6667 13.3334 18.2637 13.3334 19.0001C13.3334 19.7365 13.9303 20.3334 14.6667 20.3334ZM14.6667 12.3333C13.9303 12.3333 13.3334 12.9302 13.3334 13.6666C13.3334 14.403 13.9303 14.9999 14.6667 14.9999H25.3334C26.0698 14.9999 26.6667 14.403 26.6667 13.6666C26.6667 12.9302 26.0698 12.3333 25.3334 12.3333H14.6667ZM13.3334 23.6666C13.3334 22.9302 13.9303 22.3333 14.6667 22.3333H25.3334C26.0698 22.3333 26.6667 22.9302 26.6667 23.6666C26.6667 24.403 26.0698 24.9999 25.3334 24.9999H14.6667C13.9303 24.9999 13.3334 24.403 13.3334 23.6666ZM18.6667 17.6667C17.9303 17.6667 17.3334 18.2637 17.3334 19.0001C17.3334 19.7365 17.9303 20.3334 18.6667 20.3334H25.33C26.0664 20.3334 26.6634 19.7365 26.6634 19.0001C26.6634 18.2637 26.0664 17.6667 25.33 17.6667H18.6667Z"/>
</svg>
