<svg width="32" height="32" viewBox="0 0 32 32" fill="none" xmlns="http://www.w3.org/2000/svg">
<path fill-rule="evenodd" clip-rule="evenodd" d="M18.0714 5.59483C16.9121 4.48825 15.0878 4.48825 13.9285 5.59483L7.3095 11.913L4.3095 14.7766C4.01386 15.0588 3.91971 15.4925 4.07171 15.8719C4.22371 16.2513 4.59128 16.5 4.99997 16.5H6.99997V25C6.99997 26.6569 8.34312 28 9.99997 28H22C23.6568 28 25 26.6569 25 25V16.5H27C27.4087 16.5 27.7762 16.2513 27.9282 15.8719C28.0802 15.4925 27.9861 15.0588 27.6904 14.7766L24.6904 11.913L18.0714 5.59483ZM8.99997 15.5V13.0643L15.3095 7.04154C15.6959 6.67268 16.304 6.67268 16.6904 7.04154L23 13.0643V25C23 25.5523 22.5523 26 22 26H18V20C18 19.4477 17.5523 19 17 19H15C14.4477 19 14 19.4477 14 20V26H9.99997C9.44769 26 8.99997 25.5523 8.99997 25V15.5Z" fill="#2F343D"/>
</svg>
