<svg xmlns="http://www.w3.org/2000/svg" viewBox="0 0 32 32">
  <path fill-rule="evenodd" d="M11 16C12.1037 16 13.1238 15.6424 13.9509 15.0368L14.7071 15.7929L14.7071 15.7929L16.7071 17.7929C16.9435 18.0293 17.0462 18.3683 16.9806 18.6961C16.7108 20.0453 17.1795 20.4527 17.2972 20.5357L20.1644 21.0136C20.6466 21.094 21 21.5112 21 22C21 22.6432 21.3583 23.3281 21.9265 23.9512C22.4706 24.548 23.0705 24.9379 23.3369 25.0569C24.2214 25.3161 24.7277 25.2995 24.9875 25.2288C25.1923 25.1731 25.2689 25.0825 25.3242 24.9471C25.4003 24.7605 25.4344 24.4559 25.3827 24.0428C25.3412 23.7106 25.2513 23.3653 25.1409 23.0551L15.7929 13.7071L15.797 13.703L15.4247 13.3307C15.792 12.6348 16 11.8417 16 11C16 8.23858 13.7614 6 11 6C8.23858 6 6 8.23858 6 11C6 13.7614 8.23858 16 11 16ZM17.7554 12.8411C17.9149 12.2545 18 11.6372 18 11C18 7.13401 14.866 4 11 4C7.13401 4 4 7.13401 4 11C4 14.866 7.13401 18 11 18C11.9152 18 12.7894 17.8244 13.5907 17.5049L14.9347 18.8489C14.7111 20.8956 15.6845 22.1156 16.6838 22.4487L16.7582 22.4735L16.8356 22.4864L19.0975 22.8634C19.3188 23.8448 19.8841 24.6797 20.4486 25.2988C21.1711 26.0912 22.041 26.6934 22.6286 26.9285L22.67 26.945L22.7127 26.9578C23.7975 27.2833 24.7355 27.37 25.5125 27.1587C26.3494 26.931 26.8978 26.3842 27.1759 25.7029C27.433 25.0728 27.4407 24.3816 27.3673 23.7947C27.2922 23.1942 27.1204 22.6085 26.9285 22.1286C26.8782 22.0029 26.8029 21.8887 26.7071 21.7929L17.7554 12.8411ZM12 10.5C12 11.3284 11.3284 12 10.5 12C9.67157 12 9 11.3284 9 10.5C9 9.67157 9.67157 9 10.5 9C11.3284 9 12 9.67157 12 10.5Z"/>
</svg>
