<svg xmlns="http://www.w3.org/2000/svg" viewBox="0 0 32 32">
  <path d="M5 7C3.89543 7 3 7.89543 3 9V23C3 24.1046 3.89543 25 5 25H27C28.1046 25 29 24.1046 29 23V9C29 7.89543 28.1046 7 27 7H5ZM5 9H27V23H5V9ZM8 11C7.44772 11 7 11.4477 7 12C7 12.5523 7.44772 13 8 13H10C10.5523 13 11 12.5523 11 12C11 11.4477 10.5523 11 10 11H8ZM8 16C8 15.4477 8.44772 15 9 15H11C11.5523 15 12 15.4477 12 16C12 16.5523 11.5523 17 11 17H9C8.44772 17 8 16.5523 8 16ZM15 15C14.4477 15 14 15.4477 14 16C14 16.5523 14.4477 17 15 17H17C17.5523 17 18 16.5523 18 16C18 15.4477 17.5523 15 17 15H15ZM20 16C20 15.4477 20.4477 15 21 15H23C23.5523 15 24 15.4477 24 16C24 16.5523 23.5523 17 23 17H21C20.4477 17 20 16.5523 20 16ZM15 11C14.4477 11 14 11.4477 14 12C14 12.5523 14.4477 13 15 13H17C17.5523 13 18 12.5523 18 12C18 11.4477 17.5523 11 17 11H15ZM10 20C10 19.4477 10.4477 19 11 19H21C21.5523 19 22 19.4477 22 20C22 20.5523 21.5523 21 21 21H11C10.4477 21 10 20.5523 10 20ZM22 11C21.4477 11 21 11.4477 21 12C21 12.5523 21.4477 13 22 13H24C24.5523 13 25 12.5523 25 12C25 11.4477 24.5523 11 24 11H22Z"/>
</svg>
