<svg xmlns="http://www.w3.org/2000/svg" viewBox="0 0 32 32">
<path d="M4.36694 22.4095C4.22493 22.9433 4.54247 23.491 5.07618 23.633C5.6099 23.7751 6.15768 23.4575 6.29969 22.9238L4.36694 22.4095ZM12.1718 22.9238C12.3138 23.4575 12.8616 23.7751 13.3953 23.633C13.929 23.491 14.2466 22.9433 14.1046 22.4095L12.1718 22.9238ZM6.29969 22.9238L9.6223 10.4363L7.68954 9.92205L4.36694 22.4095L6.29969 22.9238ZM8.8492 10.4363L12.1718 22.9238L14.1046 22.4095L10.7819 9.92206L8.8492 10.4363ZM6.30892 19.6667H12.1626V17.6667H6.30892V19.6667ZM9.6223 10.4363C9.51688 10.8325 8.95461 10.8325 8.8492 10.4363L10.7819 9.92206C10.3603 8.33727 8.11122 8.33725 7.68954 9.92205L9.6223 10.4363ZM20.2672 7C20.8195 7 21.2672 7.44772 21.2672 8V9.42888L24.1026 8.93484C24.6467 8.84004 25.1647 9.20426 25.2595 9.74835C25.3543 10.2924 24.99 10.8104 24.4459 10.9052L21.2672 11.459V13.7791C21.8367 13.7868 22.3945 13.8436 22.9139 13.9352C23.8827 14.1059 24.8027 14.4125 25.4519 14.8192C26.4547 15.3796 27.5672 16.5785 27.6605 18.3803C27.7542 20.1897 26.8044 22.3204 24.2983 24.722C23.8996 25.1041 23.2666 25.0906 22.8845 24.6919C22.5023 24.2931 22.5158 23.6601 22.9146 23.278C25.217 21.0716 25.7142 19.4689 25.6632 18.4837C25.6415 18.0658 25.5185 17.7074 25.3417 17.4106C24.8061 18.6337 24.2317 19.5097 23.5652 20.1818C22.6831 21.0713 21.7028 21.5317 20.7301 21.9886L20.6924 22.0063C19.7109 22.4673 18.4183 22.5938 17.3135 22.1494C16.745 21.9207 16.2176 21.5353 15.8368 20.9619C15.4559 20.3882 15.2602 19.6844 15.2602 18.88C15.2602 17.3622 15.7648 16.173 16.6374 15.3235C17.3778 14.6027 18.3177 14.1895 19.2672 13.9754V11.8075L17.0997 12.1852C16.5556 12.28 16.0377 11.9157 15.9429 11.3717C15.8481 10.8276 16.2123 10.3096 16.7564 10.2148L19.2672 9.77735V8C19.2672 7.44772 19.715 7 20.2672 7ZM19.2672 16.047C18.769 16.2104 18.3501 16.4474 18.0326 16.7565C17.5904 17.187 17.2602 17.8378 17.2602 18.88C17.2602 19.3556 17.373 19.6598 17.503 19.8555C17.6331 20.0515 17.8189 20.1969 18.0599 20.2939C18.4083 20.434 18.8471 20.4595 19.2672 20.3799V16.047ZM21.2672 19.4633C21.5893 19.2643 21.8738 19.0471 22.1451 18.7735C22.6511 18.2632 23.1569 17.5049 23.6845 16.1912C23.3694 16.0805 22.9914 15.9797 22.5668 15.9048C22.1492 15.8312 21.7087 15.7868 21.2672 15.7793V19.4633Z"/>
</svg>
