<svg width="32" height="32" viewBox="0 0 32 32" fill="none" xmlns="http://www.w3.org/2000/svg">
<path d="M4.36694 22.4095C4.22493 22.9433 4.54247 23.491 5.07618 23.633C5.6099 23.7751 6.15768 23.4575 6.29969 22.9238L4.36694 22.4095ZM12.1718 22.9238C12.3138 23.4575 12.8616 23.7751 13.3953 23.633C13.929 23.491 14.2466 22.9433 14.1046 22.4095L12.1718 22.9238ZM6.29969 22.9238L9.6223 10.4363L7.68954 9.92205L4.36694 22.4095L6.29969 22.9238ZM8.8492 10.4363L12.1718 22.9238L14.1046 22.4095L10.7819 9.92206L8.8492 10.4363ZM6.30892 19.6667H12.1626V17.6667H6.30892V19.6667ZM9.6223 10.4363C9.51688 10.8325 8.95461 10.8325 8.8492 10.4363L10.7819 9.92206C10.3603 8.33727 8.11122 8.33725 7.68954 9.92205L9.6223 10.4363Z" fill="#2F343D"/>
<path d="M20.2672 8V21.1011M20.2672 21.1011C22.2708 20.16 23.6065 19.52 24.9421 15.68M20.2672 21.1011C18.7285 21.824 16.2602 21.44 16.2602 18.88C16.2602 13.76 22.9386 14.4 24.9421 15.68M16.928 11.2L24.2743 9.92M24.9421 15.68C26.5004 16.5333 28.4149 19.392 23.6065 24" stroke="#2F343D" stroke-width="2" stroke-linecap="round" stroke-linejoin="round"/>
</svg>
