<svg xmlns="http://www.w3.org/2000/svg" viewBox="0 0 24 24">
  <path d="M13.6199 13.9869C13.8739 13.6847 13.8104 13.2454 13.5313 12.9663L13.1939 12.6289C12.8663 12.3013 12.2662 12.4603 11.9387 12.7879C11.1576 13.569 9.87505 13.5527 9.07398 12.7516L6.17303 9.8507C5.37195 9.04962 5.35572 7.76706 6.13677 6.98601C6.91781 6.20496 8.20038 6.2212 9.00145 7.02227L10.4701 8.49088C10.8606 8.8814 11.4937 8.8814 11.8843 8.49088C12.2748 8.10035 12.2748 7.46719 11.8843 7.07666L10.4157 5.60806C8.81352 4.00591 6.24839 3.97344 4.68629 5.53553C3.12419 7.09763 3.15666 9.66276 4.75881 11.2649L7.65977 14.1659C9.26192 15.768 11.827 15.8005 13.3891 14.2384C13.4704 14.1572 13.5473 14.0732 13.6199 13.9869ZM10.602 10.5193C10.348 10.8214 10.4115 11.2607 10.6906 11.5398L11.028 11.8773C11.3556 12.2048 11.9557 12.0458 12.2832 11.7183C13.0643 10.9372 14.3468 10.9534 15.1479 11.7545L18.0489 14.6555C18.8499 15.4565 18.8662 16.7391 18.0851 17.5202C17.3041 18.3012 16.0215 18.285 15.2204 17.4839L13.7518 16.0153C13.3613 15.6248 12.7281 15.6248 12.3376 16.0153C11.9471 16.4058 11.9471 17.039 12.3376 17.4295L13.8062 18.8981C15.4084 20.5003 17.9735 20.5327 19.5356 18.9706C21.0977 17.4085 21.0652 14.8434 19.4631 13.2413L16.5621 10.3403C14.96 8.73815 12.3948 8.70568 10.8327 10.2678C10.7515 10.349 10.6746 10.4329 10.602 10.5193Z" />
</svg>
