<svg xmlns="http://www.w3.org/2000/svg" viewBox="0 0 24 24">
  <path d="M14.0059 17.4768C15.4844 16.7394 16.5 15.212 16.5 13.4475V9.75C16.5 7.26472 14.4853 5.25 12 5.25C9.51472 5.25 7.5 7.26472 7.5 9.75V11.9521C7.5 11.7248 7.50001 10.8549 7.5 13.1249C7.49999 15.4262 6.59192 15.4086 5.18371 15.3812C5.02871 15.3782 4.86764 15.3751 4.70107 15.3749L4.6875 15.375C3.75552 15.375 3 14.6195 3 13.6875V11.4375C3 10.5055 3.75552 9.75 4.6875 9.75C4.88473 9.75 5.07406 9.78384 5.25 9.84602V9.75C5.25 6.02207 8.27208 3 12 3C15.7279 3 18.75 6.02208 18.75 9.75V9.84602C18.9259 9.78384 19.1153 9.75 19.3125 9.75C20.2445 9.75 21 10.5055 21 11.4375V13.6875C21 14.6195 20.2445 15.375 19.3125 15.375C19.0283 15.375 18.7604 15.3047 18.5254 15.1806C17.9381 17.3977 16.2509 19.1673 14.0831 19.8699C13.7841 20.5361 13.115 21 12.3375 21H11.6625C10.6063 21 9.75 20.1437 9.75 19.0875V18.4125C9.75 17.3563 10.6063 16.5 11.6625 16.5H12.3375C13.0539 16.5 13.6782 16.8938 14.0059 17.4768Z" />
</svg>
