<svg width="32" height="32" viewBox="0 0 32 32" fill="none" xmlns="http://www.w3.org/2000/svg">
<path fill-rule="evenodd" clip-rule="evenodd" d="M19 9V13C19 13.8939 18.609 14.6964 17.9888 15.246L19.4046 16.6618C20.386 15.7489 21 14.4461 21 13V9C21 6.23858 18.7614 4 16 4C13.4743 4 11.3861 5.87259 11.0479 8.30511L13 10.2572V9C13 7.34315 14.3431 6 16 6C17.6568 6 19 7.34315 19 9ZM14.9823 17.8964L11.1036 14.0177C11.5058 15.9625 13.0374 17.4942 14.9823 17.8964ZM18.9448 21.8589L17.3532 20.2673C16.8583 20.3954 16.3958 20.4687 16 20.4977C14.8267 20.4119 13.0683 19.9362 11.6162 18.8C10.1799 17.676 8.99997 15.8777 8.99997 13C8.99997 12.4477 8.55226 12 7.99997 12C7.44769 12 6.99997 12.4477 6.99997 13C6.99997 16.5223 8.48669 18.8906 10.3837 20.375C11.8807 21.5464 13.605 22.1488 15 22.3869V26H9.99997C9.44769 26 8.99997 26.4477 8.99997 27C8.99997 27.5523 9.44769 28 9.99997 28H22C22.5523 28 23 27.5523 23 27C23 26.4477 22.5523 26 22 26H17V22.3869C17.6018 22.2842 18.265 22.1137 18.9448 21.8589ZM20.9998 18.2571L22.4139 19.6711C23.9139 18.178 25 16.0105 25 13C25 12.4477 24.5523 12 24 12C23.4477 12 23 12.4477 23 13C23 15.4531 22.1426 17.1218 20.9998 18.2571ZM4.78117 4.78117C4.39065 5.1717 4.39065 5.80486 4.78118 6.19539L25.7732 27.1874C26.1637 27.5779 26.7969 27.5779 27.1874 27.1874C27.5779 26.7969 27.5779 26.1637 27.1874 25.7732L6.19539 4.78117C5.80486 4.39065 5.1717 4.39065 4.78117 4.78117Z" fill="#2F343D"/>
</svg>
