<svg xmlns="http://www.w3.org/2000/svg" viewBox="0 0 32 32">
<path d="M9.93423 7.23643C7.96918 8.78343 5.7128 11.5036 5.4986 15.5529C5.31853 18.9567 6.66746 21.4024 8.30845 23.1001C9.97279 24.8219 11.9241 25.754 12.8162 26.0513C14.1244 26.4874 16.3872 26.9743 20.1488 25.5637C21.2382 25.1552 22.4352 24.2482 23.5333 23.1129C23.9793 22.6518 24.3963 22.1662 24.7708 21.6825C23.8716 21.9729 22.8427 22.2373 21.7524 22.4198C19.9965 22.7137 18.0247 22.8048 16.1459 22.4124C16.068 22.3962 15.9909 22.3802 15.9143 22.3644C15.2208 22.2214 14.5789 22.0889 13.9585 21.8129C13.2368 21.4918 12.5895 21.0038 11.7929 20.2071C10.4773 18.8916 9.00717 16.8564 9 13.5245C8.95097 12.4595 9.14443 10.9658 9.43011 9.48651C9.57462 8.73819 9.74705 7.97198 9.93423 7.23643ZM10.7565 4.31928C11.7815 3.78333 12.7474 4.81438 12.4402 5.75387C12.0578 6.92306 11.6718 8.42609 11.3938 9.86573C11.1118 11.3261 10.958 12.6355 10.9987 13.4501L11 13.475V13.5C11 16.1536 12.1304 17.7162 13.2071 18.7929C13.9104 19.4963 14.3581 19.8016 14.7715 19.9856C15.1849 20.1695 15.61 20.258 16.3679 20.4157C16.4281 20.4282 16.4903 20.4412 16.5548 20.4547C18.1146 20.7805 19.8214 20.7152 21.4222 20.4473C23.467 20.105 25.2467 19.4479 26.184 18.9665C26.7328 18.6846 27.2774 18.8893 27.5739 19.1529C27.8758 19.4213 28.1793 20.0014 27.8515 20.6202C27.2067 21.8374 26.1752 23.2583 24.9709 24.5033C23.7767 25.738 22.336 26.8795 20.8511 27.4364C16.6128 29.0257 13.8756 28.5127 12.1838 27.9487C11.0426 27.5683 8.79651 26.4827 6.87044 24.4901C4.92103 22.4734 3.28657 19.508 3.50139 15.4472C3.83859 9.07286 8.42587 5.53788 10.7565 4.31928Z"/>
</svg>
