<svg xmlns="http://www.w3.org/2000/svg" viewBox="0 0 32 32">
  <path fill-rule="evenodd" d="M25.695 5.73505C24.5343 4.54798 22.6303 4.52932 21.4465 5.69339L10.571 16.3883C10.1734 16.7793 9.89264 17.2733 9.76024 17.815L9.02118 20.8384C8.80458 21.7245 9.54406 22.5523 10.4489 22.4366L13.2793 22.0748C13.9104 21.9941 14.4996 21.7148 14.9616 21.2773L26.212 10.6235C27.4286 9.47136 27.4657 7.54595 26.2942 6.34786L25.695 5.73505ZM22.8488 7.1194C23.2434 6.73137 23.8781 6.73759 24.265 7.13328L24.8642 7.7461C25.2547 8.14546 25.2424 8.78726 24.8368 9.17131L22.6532 11.2391L20.6731 9.25897L22.8488 7.1194ZM19.2471 10.6613L11.9733 17.8143C11.8408 17.9447 11.7472 18.1093 11.703 18.2899L11.2059 20.3235L13.0256 20.0909C13.236 20.064 13.4324 19.9709 13.5864 19.8251L21.2005 12.6148L19.2471 10.6613ZM6 8.30005C6 7.74777 6.44772 7.30005 7 7.30005H10.39H15.78C16.3323 7.30005 16.78 6.85234 16.78 6.30005C16.78 5.74777 16.3323 5.30005 15.78 5.30005H10.39H7C5.34315 5.30005 4 6.6432 4 8.30005V25.0001C4 26.6569 5.34315 28.0001 7 28.0001H23.5333C25.1902 28.0001 26.5333 26.6569 26.5333 25.0001V16.2683C26.5333 15.7161 26.0856 15.2683 25.5333 15.2683C24.981 15.2683 24.5333 15.7161 24.5333 16.2683V25.0001C24.5333 25.5523 24.0856 26.0001 23.5333 26.0001H7C6.44771 26.0001 6 25.5523 6 25.0001V8.30005Z"/>
</svg>
