<svg xmlns="http://www.w3.org/2000/svg" viewBox="0 0 24 24">
  <path d="M9.24156 12.3595C9.86444 12.3595 10.3694 11.8536 10.3694 11.2295C10.3694 10.6054 9.86444 10.0995 9.24156 10.0995C8.61868 10.0995 8.11374 10.6054 8.11374 11.2295C8.11374 11.8536 8.61868 12.3595 9.24156 12.3595Z M13.7528 11.2295C13.7528 11.8536 13.2479 12.3595 12.625 12.3595C12.0021 12.3595 11.4972 11.8536 11.4972 11.2295C11.4972 10.6054 12.0021 10.0995 12.625 10.0995C13.2479 10.0995 13.7528 10.6054 13.7528 11.2295Z M17.1363 11.2295C17.1363 11.8536 16.6314 12.3595 16.0085 12.3595C15.3856 12.3595 14.8807 11.8536 14.8807 11.2295C14.8807 10.6054 15.3856 10.0995 16.0085 10.0995C16.6314 10.0995 17.1363 10.6054 17.1363 11.2295Z M2 19.0709L4.80372 19.804C6.80321 20.3269 8.86893 19.423 10.3981 17.9358C11.0895 18.0482 11.8014 18.1055 12.5233 18.1055C17.6396 18.1055 22 15.226 22 11.2028C22 7.17943 17.6397 4.29999 12.5233 4.29999C7.40658 4.29999 3.04634 7.17932 3.0466 11.2029C3.0466 12.728 3.69446 14.1329 4.81977 15.2713C4.75304 15.8534 4.47768 16.3197 3.97486 16.878L2 19.0709ZM12.5233 6.07036C16.8154 6.07036 20.2952 8.36823 20.2952 11.2028C20.2952 14.0371 16.8154 16.3352 12.5233 16.3352C11.5675 16.3352 10.6522 16.2209 9.80664 16.0126C8.94722 17.0814 7.05663 18.5675 5.22003 18.0872C5.81743 17.4239 6.70247 16.303 6.51304 14.4566C5.41222 13.5711 4.75144 12.4378 4.75144 11.2028C4.75125 8.36804 8.23097 6.07036 12.5233 6.07036Z" />
</svg>
