<svg xmlns="http://www.w3.org/2000/svg" viewBox="0 0 32 32">
<path d="M12.5972 6.23135L6.09723 12.7313C5.549 13.2795 5.549 14.1684 6.09723 14.7166C6.64546 15.2649 7.53431 15.2649 8.08253 14.7166L9.44692 13.3522L10.8611 14.7665L10.8609 14.7667L13.5896 17.4954L13.5898 17.4952L15.0041 18.9094L13.1185 20.795C12.3374 21.576 12.3374 22.8424 13.1185 23.6234L14.5327 25.0376L24.9036 14.6667L23.4894 13.2525C22.7083 12.4715 21.442 12.4715 20.6609 13.2525L18.7753 15.1381L13.2182 9.581L14.5825 8.21665C15.1307 7.66843 15.1307 6.77957 14.5825 6.23135C14.0343 5.68312 13.1454 5.68312 12.5972 6.23135ZM4.68301 11.3171C3.35374 12.6464 3.35374 14.8016 4.68301 16.1308C5.99556 17.4434 8.11336 17.4599 9.44617 16.1804L12.1754 18.9096L11.7042 19.3808C10.1421 20.9429 10.1421 23.4755 11.7042 25.0376L13.8256 27.1589C14.2161 27.5495 14.8493 27.5495 15.2398 27.1589L20.4877 21.911L23.2382 24.7861C23.6199 25.1852 24.2529 25.1992 24.652 24.8175C25.0511 24.4357 25.0651 23.8027 24.6834 23.4036L21.9023 20.4964L27.0249 15.3738C27.4154 14.9833 27.4154 14.3501 27.0249 13.9596L24.9036 11.8383C23.3415 10.2762 20.8088 10.2762 19.2467 11.8383L18.7496 12.3354L16.0208 9.60657C17.3259 8.27546 17.3179 6.13834 15.9967 4.81713C14.6674 3.48786 12.5123 3.48786 11.183 4.81713L4.68301 11.3171Z"/>
</svg>
