<svg xmlns="http://www.w3.org/2000/svg" viewBox="0 0 24 24">
  <path d="M4.8 6.59912C6.44201 4.41362 9.05592 3 12 3C16.9706 3 21 7.02944 21 12H19.2C19.2 8.02355 15.9764 4.8 12 4.8C9.33498 4.8 7.00815 6.24791 5.76323 8.4H7.5C7.99706 8.4 8.4 8.80294 8.4 9.3C8.4 9.79706 7.99706 10.2 7.5 10.2H3.9C3.40294 10.2 3 9.79706 3 9.3V5.7C3 5.20294 3.40294 4.8 3.9 4.8C4.39706 4.8 4.8 5.20294 4.8 5.7V6.59912Z M19.2 17.4009C17.558 19.5864 14.9441 21 12 21C7.02944 21 3 16.9706 3 12H4.8C4.8 15.9764 8.02355 19.2 12 19.2C14.665 19.2 16.9919 17.7521 18.2368 15.6H16.5C16.0029 15.6 15.6 15.1971 15.6 14.7C15.6 14.2029 16.0029 13.8 16.5 13.8H20.1C20.5971 13.8 21 14.2029 21 14.7V18.3C21 18.7971 20.5971 19.2 20.1 19.2C19.6029 19.2 19.2 18.7971 19.2 18.3V17.4009Z" />
</svg>
