<svg xmlns="http://www.w3.org/2000/svg" viewBox="0 0 32 32">
<path d="M19.6923 6.39993C20.2078 6.59819 20.4649 7.17678 20.2667 7.69226L13.6 25.0256C13.4017 25.5411 12.8231 25.7982 12.3077 25.6C11.7922 25.4017 11.535 24.8231 11.7333 24.3076L18.4 6.9743C18.5982 6.45883 19.1768 6.20167 19.6923 6.39993ZM10.0404 11.2928C10.4309 11.6834 10.4309 12.3165 10.0404 12.7071L6.74753 15.9999L10.0404 19.2928C10.4309 19.6834 10.4309 20.3165 10.0404 20.7071C9.6499 21.0976 9.01673 21.0976 8.62621 20.7071L4.62621 16.7071C4.43867 16.5195 4.33331 16.2652 4.33331 15.9999C4.33331 15.7347 4.43867 15.4804 4.62621 15.2928L8.62621 11.2928C9.01673 10.9023 9.6499 10.9023 10.0404 11.2928ZM21.9595 11.2928C22.3501 10.9023 22.9832 10.9023 23.3738 11.2928L27.3738 15.2928C27.5613 15.4804 27.6666 15.7347 27.6666 15.9999C27.6666 16.2652 27.5613 16.5195 27.3738 16.7071L23.3738 20.7071C22.9832 21.0976 22.3501 21.0976 21.9595 20.7071C21.569 20.3165 21.569 19.6834 21.9595 19.2928L25.2524 15.9999L21.9595 12.7071C21.569 12.3165 21.569 11.6834 21.9595 11.2928Z"/>
</svg>
