<svg xmlns="http://www.w3.org/2000/svg" viewBox="0 0 32 32">
<path d="M19.4407 10.44L17.2587 4.4036C16.9326 3.50163 15.6469 3.53147 15.363 4.44759L13.52 10.396C13.3903 10.8147 13.0031 11.1001 12.5648 11.1001H5.64257C4.72152 11.1001 4.29024 12.2398 4.98054 12.8495L9.90525 17.1997C10.1839 17.4458 10.303 17.8263 10.2144 18.1874L8.55165 24.9664C8.33024 25.8691 9.35243 26.5592 10.1069 26.0164L15.6613 22.0202C16.0102 21.7692 16.4804 21.7692 16.8293 22.0202L22.3837 26.0164C23.1381 26.5592 24.1603 25.8691 23.9389 24.9664L22.2706 18.1648C22.185 17.8157 22.2933 17.4474 22.5544 17.2003L27.176 12.8264C27.8327 12.2048 27.3928 11.1001 26.4886 11.1001H20.3811C19.9599 11.1001 19.5838 10.8361 19.4407 10.44Z"/>
<path d="M14.4078 4.15153C14.9755 2.31929 17.5471 2.25961 18.1991 4.06355L20.3811 10.0999H26.4886C28.2971 10.0999 29.1769 12.3094 27.8634 13.5525L23.2418 17.9265L24.9101 24.7281C25.3529 26.5334 23.3086 27.9136 21.7997 26.828L16.2453 22.8319L10.6909 26.828C9.182 27.9136 7.13762 26.5334 7.58043 24.7281L9.24321 17.9491L4.3185 13.5989C2.9379 12.3794 3.80047 10.0999 5.64257 10.0999H12.5648L14.4078 4.15153ZM18.5002 10.7798L16.3182 4.74343L14.4752 10.6919C14.2158 11.5292 13.4414 12.0999 12.5648 12.0999H5.64257L10.5673 16.4501C11.1246 16.9424 11.3628 17.7033 11.1856 18.4255L9.52286 25.2045L15.0773 21.2084C15.775 20.7064 16.7155 20.7064 17.4133 21.2084L22.9677 25.2045L21.2994 18.403C21.1281 17.7047 21.3448 16.9682 21.867 16.4739L26.4886 12.0999H20.3811C19.5387 12.0999 18.7866 11.5721 18.5002 10.7798Z"/>
</svg>
