<svg width="32" height="32" viewBox="0 0 32 32" fill="none" xmlns="http://www.w3.org/2000/svg">
<path d="M19.4407 10.4399L17.2587 4.40352C16.9326 3.50155 15.6469 3.53139 15.363 4.44751L13.52 10.3959C13.3903 10.8146 13.0031 11.1 12.5648 11.1H5.64257C4.72152 11.1 4.29024 12.2397 4.98054 12.8494L9.90525 17.1996C10.1839 17.4458 10.303 17.8262 10.2144 18.1873L8.55165 24.9663C8.33024 25.869 9.35243 26.5591 10.1069 26.0163L15.6613 22.0201C16.0102 21.7691 16.4804 21.7691 16.8293 22.0201L22.3837 26.0163C23.1381 26.5591 24.1603 25.869 23.9389 24.9663L22.2706 18.1648C22.185 17.8156 22.2933 17.4474 22.5544 17.2002L27.176 12.8263C27.8327 12.2047 27.3928 11.1 26.4886 11.1H20.3811C19.9599 11.1 19.5838 10.836 19.4407 10.4399Z" fill="#FFD031" stroke="#FFD031" stroke-width="2"/>
</svg>
