<svg width="32" height="32" viewBox="0 0 32 32" fill="none" xmlns="http://www.w3.org/2000/svg">
<path fill-rule="evenodd" clip-rule="evenodd" d="M15 3.66663C15 3.11434 15.4477 2.66663 16 2.66663C16.5523 2.66663 17 3.11434 17 3.66663V6.99996C17 7.55224 16.5523 7.99996 16 7.99996C15.4477 7.99996 15 7.55224 15 6.99996V3.66663ZM24.0638 6.7071C24.4543 6.31658 25.0875 6.31658 25.478 6.7071C25.8685 7.09763 25.8685 7.73079 25.478 8.12132L23.1213 10.478C22.7308 10.8685 22.0977 10.8685 21.7071 10.478C21.3166 10.0874 21.3166 9.45427 21.7071 9.06374L24.0638 6.7071ZM10.4806 21.7071C10.09 21.3166 9.45687 21.3166 9.06634 21.7071L6.70712 24.0663C6.31659 24.4569 6.31659 25.09 6.70712 25.4805C7.09764 25.8711 7.73081 25.8711 8.12133 25.4805L10.4806 23.1213C10.8711 22.7308 10.8711 22.0976 10.4806 21.7071ZM15 25C15 24.4477 15.4477 24 16 24C16.5523 24 17 24.4477 17 25V28.3333C17 28.8856 16.5523 29.3333 16 29.3333C15.4477 29.3333 15 28.8856 15 28.3333V25ZM6.62503 6.62492C6.23451 7.01545 6.23451 7.64861 6.62503 8.03913L8.9797 10.3938C9.37022 10.7843 10.0034 10.7843 10.3939 10.3938C10.7844 10.0033 10.7844 9.37011 10.3939 8.97959L8.03925 6.62492C7.64872 6.2344 7.01556 6.2344 6.62503 6.62492ZM21.7071 23.1213C21.3166 22.7308 21.3166 22.0976 21.7071 21.7071C22.0976 21.3165 22.7308 21.3165 23.1213 21.7071L25.4753 24.0611C25.8659 24.4516 25.8659 25.0848 25.4753 25.4753C25.0848 25.8658 24.4517 25.8658 24.0611 25.4753L21.7071 23.1213ZM2.70001 16C2.70001 16.5523 3.14773 17 3.70001 17H7.03335C7.58563 17 8.03335 16.5523 8.03335 16C8.03335 15.4477 7.58563 15 7.03334 15H3.70001C3.14773 15 2.70001 15.4477 2.70001 16ZM25 17C24.4477 17 24 16.5523 24 16C24 15.4477 24.4477 15 25 15H28.3333C28.8856 15 29.3333 15.4477 29.3333 16C29.3333 16.5523 28.8856 17 28.3333 17H25ZM20.838 15.9999C20.838 18.6719 18.6719 20.838 15.9999 20.838C13.3279 20.838 11.1618 18.6719 11.1618 15.9999C11.1618 13.3279 13.3279 11.1618 15.9999 11.1618C18.6719 11.1618 20.838 13.3279 20.838 15.9999ZM22.6666 15.9999C22.6666 19.6818 19.6818 22.6666 15.9999 22.6666C12.318 22.6666 9.33327 19.6818 9.33327 15.9999C9.33327 12.318 12.318 9.33326 15.9999 9.33326C19.6818 9.33326 22.6666 12.318 22.6666 15.9999Z" fill="#2F343D"/>
</svg>
