<svg xmlns="http://www.w3.org/2000/svg" viewBox="0 0 32 32">
<path d="M11.5 13.5C13.1569 13.5 14.5 12.1569 14.5 10.5C14.5 8.84315 13.1569 7.5 11.5 7.5C9.84315 7.5 8.5 8.84315 8.5 10.5C8.5 12.1569 9.84315 13.5 11.5 13.5ZM11.5 15.5C14.2614 15.5 16.5 13.2614 16.5 10.5C16.5 7.73858 14.2614 5.5 11.5 5.5C8.73858 5.5 6.5 7.73858 6.5 10.5C6.5 13.2614 8.73858 15.5 11.5 15.5ZM26 24H21.6V22H26C26.5523 22 27 21.5523 27 21V19.9883C27 19.1282 26.4171 18.3775 25.5838 18.1644C25.2568 18.0808 24.9134 18.0866 24.5894 18.1813L24.0948 18.3258C23.0624 18.6275 21.9678 18.6461 20.9257 18.3797L20.8186 18.3523L20.7547 18.2265C20.5666 17.8566 20.3106 17.5253 20 17.25L19.53 16.8333L19.4587 16.7807C19.1679 16.5663 18.8512 16.3936 18.518 16.2657C18.545 16.2571 18.5721 16.2488 18.5994 16.2408C19.2211 16.0592 19.8801 16.048 20.5076 16.2084L21.4211 16.442C22.1158 16.6196 22.8456 16.6072 23.5339 16.4061L24.0285 16.2616C24.6966 16.0663 25.4049 16.0543 26.0792 16.2267C27.7978 16.6661 29 18.2144 29 19.9883V21C29 22.6569 27.6569 24 26 24ZM16 21L16 21.0048V19.7032L16 19.7085V21ZM8.66773 16.9611C7.89142 16.767 7.07772 16.7806 6.3083 17.0004C4.35008 17.5599 3 19.3498 3 21.3863V23.7C3 25.3568 4.34315 26.7 6 26.7H17C18.6569 26.7 20 25.3568 20 23.7V21.7701C20 19.5069 18.4597 17.5341 16.264 16.9852C15.4246 16.7753 14.5448 16.79 13.7128 17.0277L12.5127 17.3706C11.8379 17.5634 11.1244 17.5753 10.4436 17.4051L8.66773 16.9611ZM6.85775 18.9235C7.2898 18.8 7.74673 18.7924 8.18266 18.9014L9.95855 19.3454C10.9797 19.6007 12.05 19.5828 13.0621 19.2937L14.2623 18.9507C14.7569 18.8094 15.2799 18.8007 15.779 18.9255C17.0843 19.2518 18 20.4246 18 21.7701V23.7C18 24.2522 17.5523 24.7 17 24.7H6C5.44772 24.7 5 24.2522 5 23.7V21.3863C5 20.2427 5.75812 19.2376 6.85775 18.9235ZM24.3 11C24.3 12.1046 23.4046 13 22.3 13C21.1954 13 20.3 12.1046 20.3 11C20.3 9.89543 21.1954 9 22.3 9C23.4046 9 24.3 9.89543 24.3 11ZM26.3 11C26.3 13.2091 24.5091 15 22.3 15C20.0908 15 18.3 13.2091 18.3 11C18.3 8.79086 20.0908 7 22.3 7C24.5091 7 26.3 8.79086 26.3 11Z"/>
</svg>
