<svg xmlns="http://www.w3.org/2000/svg" viewBox="0 0 32 32">
  <path d="M7.0782 9.50093C5.52689 11.6555 5 14.2711 5 16V16.0453L4.99589 16.0905C4.69272 19.4254 5.88933 21.7758 7.81261 23.4032C9.77941 25.0675 12.5674 26.0198 15.4438 26.3394C18.3177 26.6587 21.4835 26.3846 23.9846 25.8557C25.2352 25.5912 26.285 25.2702 27.0296 24.947C27.3185 24.8216 27.5433 24.7037 27.7089 24.5993C27.6319 24.5504 27.5387 24.4961 27.4275 24.4369C27.1394 24.2834 26.8095 24.1376 26.4671 23.9879L26.4074 23.9618C26.1053 23.8299 25.7676 23.6824 25.5118 23.5394C25.0483 23.2801 24.5934 22.9852 24.2617 22.6715C24.0984 22.517 23.9127 22.3099 23.7884 22.0518C23.6568 21.7786 23.5626 21.3708 23.7475 20.9394C24.7469 18.6075 25.2219 17.3302 25.4519 16.4868C25.6667 15.6994 25.6667 15.3029 25.6667 14.6724V14.6666C25.6667 14.1655 25.3754 11.8692 23.9225 9.72813C22.5158 7.65506 19.9853 5.66663 15.3333 5.66663C11.1259 5.66663 8.5928 7.39732 7.0782 9.50093ZM5.45513 8.33232C7.34053 5.71371 10.4741 3.66663 15.3333 3.66663C20.6813 3.66663 23.8175 6.01152 25.5775 8.60512C27.2912 11.1307 27.6667 13.8344 27.6667 14.6666C27.6667 15.3661 27.666 15.9696 27.3814 17.0131C27.1274 17.9445 26.6476 19.2296 25.7582 21.3232C25.9226 21.4535 26.1666 21.614 26.4882 21.7939C26.6542 21.8868 26.9096 21.9986 27.2683 22.1554C27.6012 22.301 28.0006 22.4762 28.3675 22.6715C28.7193 22.8588 29.1305 23.11 29.4363 23.4384C29.756 23.7818 30.0917 24.371 29.8519 25.0903C29.6939 25.5643 29.327 25.9009 29.0213 26.1245C28.6892 26.3675 28.2771 26.5859 27.8259 26.7817C26.9195 27.1751 25.7313 27.5305 24.3984 27.8124C21.7324 28.3762 18.349 28.6745 15.2229 28.3272C12.0993 27.9801 8.88725 26.9325 6.52072 24.93C4.1197 22.8984 2.65164 19.9302 3.0001 15.9543C3.00904 13.9059 3.62013 10.8809 5.45513 8.33232ZM10.6667 13.1656C10.6667 12.5955 11.1288 12.1333 11.6989 12.1333H17.6344C18.2045 12.1333 18.6667 12.5955 18.6667 13.1656C18.6667 13.7357 18.2045 14.1978 17.6344 14.1978H11.6989C11.1288 14.1978 10.6667 13.7357 10.6667 13.1656ZM11.6989 18C11.1288 18 10.6667 18.4622 10.6667 19.0323C10.6667 19.6024 11.1288 20.0645 11.6989 20.0645H18.9677C19.5378 20.0645 20 19.6024 20 19.0323C20 18.4622 19.5378 18 18.9677 18H11.6989Z"/>
</svg>
