<svg xmlns="http://www.w3.org/2000/svg" viewBox="0 0 24 24">
  <path d="M9 13C9 12.4477 9.44772 12 10 12C10.5523 12 11 12.4477 11 13V17C11 17.5523 10.5523 18 10 18C9.44772 18 9 17.5523 9 17V13Z M14 12C13.4477 12 13 12.4477 13 13V17C13 17.5523 13.4477 18 14 18C14.5523 18 15 17.5523 15 17V13C15 12.4477 14.5523 12 14 12Z M19 10C19 9.91254 18.9944 9.82639 18.9835 9.74189C19.5904 9.39849 20 8.74708 20 8.00001V6.00001C20 4.89544 19.1046 4.00001 18 4.00001H6C4.89543 4.00001 4 4.89544 4 6.00001V8.00001C4 8.74708 4.40961 9.39849 5.0165 9.74189C5.00561 9.82639 5 9.91254 5 10V20C5 21.1046 5.89543 22 7 22H17C18.1046 22 19 21.1046 19 20V10ZM7 10V20H17V10H7ZM18 6.00001H6V8.00001H18V6.00001Z M11.99 2C10.89 2 10 2.89 10 3.99H13.98C13.98 2.89 13.09 2 11.99 2Z" />
</svg>
