<svg xmlns="http://www.w3.org/2000/svg" viewBox="0 0 24 24">
  <path d="M15 18V16H17.5C18.8807 16 20 14.8807 20 13.5C20 12.2419 19.0647 11.1836 17.8299 11.0215L16.8182 10.8886L16.9715 9.8798C16.9904 9.75516 17 9.62836 17 9.5C17 8.11929 15.8807 7 14.5 7C13.9719 7 13.471 7.16298 13.051 7.4624L12.1856 8.0794L11.6224 7.17798C11.1678 6.45033 10.3733 6 9.5 6C8.11929 6 7 7.11929 7 8.5C7 8.87767 7.08314 9.24153 7.24132 9.57351L7.88968 10.9343L6.38391 11.0026C5.05334 11.063 4 12.1624 4 13.5C4 14.8807 5.11929 16 6.5 16H9V18H6.5C4.01472 18 2 15.9853 2 13.5C2 11.5237 3.27675 9.83683 5.05992 9.23526C5.02022 8.99406 5 8.74833 5 8.5C5 6.01472 7.01472 4 9.5 4C10.7402 4 11.8943 4.50636 12.7268 5.36304C13.28 5.1257 13.8811 5 14.5 5C16.9026 5 18.8655 6.88292 18.9934 9.25363C20.7568 9.87289 22 11.5529 22 13.5C22 15.9853 19.9853 18 17.5 18H15ZM11 13.5858L9.87868 14.7071C9.48815 15.0976 8.85499 15.0976 8.46447 14.7071C8.07394 14.3166 8.07394 13.6834 8.46447 13.2929L11.2929 10.4645C11.6834 10.0739 12.3166 10.0739 12.7071 10.4645L15.5355 13.2929C15.9261 13.6834 15.9261 14.3166 15.5355 14.7071C15.145 15.0976 14.5118 15.0976 14.1213 14.7071L13 13.5858V20C13 20.5523 12.5523 21 12 21C11.4477 21 11 20.5523 11 20V13.5858Z" />
</svg>
