<svg xmlns="http://www.w3.org/2000/svg" viewBox="0 0 32 32">
<path d="M19 10.5C19 12.1569 17.6569 13.5 16 13.5C14.3431 13.5 13 12.1569 13 10.5C13 8.84315 14.3431 7.5 16 7.5C17.6569 7.5 19 8.84315 19 10.5ZM21 10.5C21 13.2614 18.7614 15.5 16 15.5C13.2386 15.5 11 13.2614 11 10.5C11 7.73858 13.2386 5.5 16 5.5C18.7614 5.5 21 7.73858 21 10.5ZM12.8891 17.2438C12.1197 17.0635 11.3177 17.0761 10.5543 17.2806C8.45785 17.8421 7 19.7419 7 21.9122V24C7 25.6569 8.34315 27 10 27H22C23.6569 27 25 25.6569 25 24V22.1709C25 19.849 23.4016 17.8326 21.141 17.3028L20.9392 17.2555C20.1369 17.0675 19.3006 17.0807 18.5046 17.2939L16.9538 17.7093C16.317 17.8798 15.6479 17.8904 15.0061 17.7399L12.8891 17.2438ZM11.0718 19.2125C11.5167 19.0933 11.9842 19.0859 12.4327 19.191L14.5497 19.6872C15.5124 19.9128 16.5161 19.897 17.4712 19.6412L19.0221 19.2258C19.4997 19.0978 20.0015 19.0899 20.4828 19.2028L20.6846 19.25C22.0409 19.5679 23 20.7778 23 22.1709V24C23 24.5523 22.5523 25 22 25H10C9.44772 25 9 24.5523 9 24V21.9122C9 20.6471 9.84977 19.5398 11.0718 19.2125Z"/>
</svg>
