<svg xmlns="http://www.w3.org/2000/svg" viewBox="0 0 24 24">
  <path d="M12 14C11.45 14 11 13.55 11 13V9C11 8.45 11.45 8 12 8C12.55 8 13 8.45 13 9V13C13 13.55 12.55 14 12 14ZM12 17C11.4477 17 11 16.5523 11 16C11 15.4477 11.4477 15 12 15C12.5523 15 13 15.4477 13 16C13 16.5523 12.5523 17 12 17ZM4.85101 21C2.65829 21 1.28907 18.629 2.38685 16.7376L9.53591 4.41713C10.6326 2.52761 13.3674 2.52761 14.4642 4.41723L21.6131 16.7375C22.711 18.629 21.3417 21 19.149 21H4.85101ZM4.85101 19.106H19.149C19.8786 19.106 20.335 18.3157 19.9698 17.6864L12.8208 5.36609C12.4555 4.73661 11.5445 4.73661 11.1792 5.36599L4.03018 17.6865C3.66501 18.3157 4.12142 19.106 4.85101 19.106Z" />
</svg>
