<svg xmlns="http://www.w3.org/2000/svg" viewBox="0 0 32 32">
<path d="M22.5 5.5C23.0523 5.5 23.5 5.94772 23.5 6.5V22.5858L26.7929 19.2929C27.1834 18.9024 27.8166 18.9024 28.2071 19.2929C28.5976 19.6834 28.5976 20.3166 28.2071 20.7071L23.2071 25.7071C22.8297 26.0846 22.2223 26.099 21.8273 25.7399L16.3273 20.7399C15.9187 20.3684 15.8886 19.736 16.2601 19.3273C16.6316 18.9187 17.264 18.8886 17.6727 19.2601L21.5 22.7394V6.5C21.5 5.94772 21.9477 5.5 22.5 5.5ZM3 9.5C3 8.94772 3.44772 8.5 4 8.5H17.5C18.0523 8.5 18.5 8.94772 18.5 9.5C18.5 10.0523 18.0523 10.5 17.5 10.5H4C3.44772 10.5 3 10.0523 3 9.5ZM3 15.5C3 14.9477 3.44772 14.5 4 14.5H15C15.5523 14.5 16 14.9477 16 15.5C16 16.0523 15.5523 16.5 15 16.5H4C3.44772 16.5 3 16.0523 3 15.5ZM4 20.5C3.44772 20.5 3 20.9477 3 21.5C3 22.0523 3.44772 22.5 4 22.5H12.5C13.0523 22.5 13.5 22.0523 13.5 21.5C13.5 20.9477 13.0523 20.5 12.5 20.5H4Z"/>
</svg>
